<svg xmlns="http://www.w3.org/2000/svg" viewBox="0 0 2160 600" width="2160" height="600">
	<style>
		tspan { white-space:pre }
		.shp0 { fill: #000000 } 
	</style>
	<path id="Shape 2" class="shp0" d="M2160 514L2155 514L2155 468.96L2149 468.96L2149 458.8L2133 458.8L2133 396.99L2128.87 396.99L2128.87 360L2122.92 360L2122.92 342.97L2118.87 342.97L2118.87 336.89L2107.47 325.5L2107.47 309.99L2097 309.99C2097 309.99 2097.55 285 2097 285C2096.45 285 2091.61 285 2091.61 285L2091.61 310.04C2091.61 310.04 2082.25 310.04 2082 310.04C2081.75 310.04 2082 326 2082 326L2070 338L2070 343L2063.92 343L2063.92 360L2058 360L2058 397.01L2052.9 397.01L2052.9 476.01L2050 476.01L2050 342L2044.9 342L2044.9 331L2026.97 331L2026.97 310L2011 310C2011 310 2011 306.72 2011 307C2011 307.28 2006 307 2006 307L2006 310L1998 307C1998 307 1996.75 311.72 1993 312C1989.25 312.28 1988 309 1988 309L1988 299L1952 299L1952 459L1942 459L1942 383L1937 383L1937 371.95L1908 371.95L1908 376L1892 376L1879 384L1879 390L1871 390L1871 403.04L1866.89 403.04L1866.89 226L1821.99 226L1821.99 358L1815 358L1815 346L1785.98 346L1785.98 358L1778 358L1778 373L1766.95 373L1766.95 387.04L1756.95 387.04L1756.95 379.94L1736.97 379.94C1736.97 379.94 1736.97 404.52 1736.97 404C1736.97 403.48 1726 404 1726 404L1726 392.95L1719 392.95L1719 387L1716 387L1716 384L1710.9 384L1710.9 387L1703.93 387L1703.93 362C1703.93 362 1674 361.72 1674 362C1674 362.28 1674 404.01 1674 404.01L1670 404.01L1670 394.94L1658 387L1640.97 387L1640.97 404.03L1636 404.03L1636 420L1628.93 420L1628.93 410L1622 410L1622 422L1618 422L1618 362.99L1532.99 362.99L1532.99 481L1524 481L1524 383L1513.95 383L1513.95 376.93L1499 374L1499 372L1492 372L1492 375L1477 379L1477 481L1469.93 481L1469.93 464.96L1464 464.96L1458 245C1458 245 1471 236.22 1473 232C1475 227.78 1473 215.78 1473 215.78L1465.5 212.78L1465.75 207.03L1458.5 206.53L1457 139C1457 139 1462 137.72 1462 136C1462 134.28 1457 133 1457 133L1454 43L1450 132C1450 132 1445.75 134 1445.75 135.78C1445.75 137.55 1450 140 1450 140L1448.5 206.28L1443 207.03L1442.25 212.78L1433.75 215.28C1433.75 215.28 1432.25 231.22 1435 236C1437.75 240.78 1449 245 1449 245L1443 461L1433.94 461L1433.94 424L1429 424L1429 378L1417 378C1417 378 1419.5 372.22 1411 372C1402.5 371.78 1404 378 1404 378L1391.96 378L1391.96 466L1386.9 466L1386.9 475L1382 475L1382 406.99L1376.9 406.99L1368 398L1360 405L1348.95 405L1348.95 409.11L1337.96 409.11L1337.96 465L1331.92 465L1331.92 417L1306 417L1306 480.01L1298 484L1298 466.97L1290 466.97C1290 466.97 1285.5 445.75 1239.5 425.53C1193.5 405.3 1139.68 409.34 1095.75 435.28C1069.5 450.78 1064 467 1064 467L1056.93 467L1056.93 496L1052 496L1052 423.99L1015.99 423.99L1015.99 440.03L1004 440.03L1004 511L996 511L996 396L992 396L992 362.98C992 362.98 985.5 363.97 982 362C978.5 360.03 979 358 979 358L952.98 358L952.98 401.01L927.92 401.01L927.92 494.01L923 494.01L923 460L916 460L916 408L910 408L910 404L906 404L906 408L899.92 408L898 398L897 408L893.84 408L893.84 428L880 428L880 355.97L869.95 355.97L869.95 352L859 352L859 356L853 356L853 339.97L847.89 339.97L847.89 356L831.97 356L831.97 444.01L812.97 444.01L812.97 479L808 479L808 459L800 459L800 310C800 310 791.2 309.25 789 308.28C786.8 307.3 783 304 783 304L764 304C764 304 760 308.25 757.5 309.53C755 310.8 749 313 749 313L749 436L736.96 436L736.96 480.01L729 480.01L729 499L717 499L717 511L713.84 511L713.84 484.97L710 484.97L710 416.99L676.99 416.99L676.99 474.01L660 474.01L660 427L633.98 427L633.98 490L619 490L619 478L612 478L612 471L599.96 471L599.96 448.98L569 448.98L569 489.01L563 489.01L563 481L551 473L535.97 473L535.97 489L529.92 489L529.92 507L523 507L523 495L516 495L516 506.05L512 506.05L512 450L427.99 450L427.99 567L418 567L418 468.99L407.95 468.99L407.95 464C407.95 464 389 457.22 389 457C389 456.78 371 464 371 464L371 556L361 556L361 469.99L356 469.99L356 440L346 430L318 430L318 476L293.98 476L293.98 567L287.92 567L287.92 534L278.94 534L278.94 482.99L266.96 482.99L266.96 468L258 468L258 504.12L244.95 504.12L244.95 449L224 449L195.98 477.02L195.98 519L177.97 519L177.97 541.02L172 541.02L172 498.99L161.95 498.99L161.95 437.99L114.99 437.99L114.99 510L101.96 510L101.96 530L91.95 530L91.95 428.99L56 428.99L56 555L48.93 555L48.93 576L34 576L34 539.99L16.97 539.99L16.97 438.99L0 438.99L0 600L2160 600L2160 515" />
</svg>